<svg xmlns="http://www.w3.org/2000/svg" width="424.084" height="235.527" viewBox="0 0 424.084 235.527">
  <g id="new_logo_igrab" transform="translate(-377 -7750.202)">
    <g id="logo" transform="translate(-103.301 -300)">
      <path id="Path_79" data-name="Path 79" d="M7.817,13.346a15.2,15.2,0,0,0,12.5-17.473,15.2,15.2,0,0,0-17.475-12.5A15.184,15.184,0,0,0-9.652.846a15.193,15.193,0,0,0,17.469,12.5" transform="translate(700.251 8122.644)" fill="#ee3284"/>
      <path id="Path_80" data-name="Path 80" d="M5.62.091A15.194,15.194,0,1,0,23.094,12.6,15.187,15.187,0,0,0,5.62.091" transform="translate(697.479 8242.004)" fill="#ee3284"/>
      <path id="Path_81" data-name="Path 81" d="M7.817,13.347a15.2,15.2,0,0,0,12.5-17.473,15.2,15.2,0,0,0-17.475-12.5A15.184,15.184,0,0,0-9.652.845a15.2,15.2,0,0,0,17.469,12.5" transform="translate(700.251 8087.158)" fill="#ee3284"/>
      <path id="Path_82" data-name="Path 82" d="M8.718,7.563a1.814,1.814,0,0,0,.208-.323,10.738,10.738,0,0,0,1.633-7.7A10.876,10.876,0,0,0-1.934-9.395,10.844,10.844,0,0,0-10.846,3.081a10.744,10.744,0,0,0,5.513,7.727,14.114,14.114,0,0,1-1.23-3.84A11.955,11.955,0,0,1-6.39,1.722,7.663,7.663,0,0,1-5.774.116l.3-.567a.391.391,0,0,1,.536-.161.4.4,0,0,1,.2.454l-.014.05S-4.8.1-4.9.453a6.157,6.157,0,0,0-.212,1.483,10.215,10.215,0,0,0,.859,4.38A11.221,11.221,0,0,0-1.89,9.9c.2.167.4.364.54.457l.36.247c.093.05.143.088.208.127a7.754,7.754,0,0,0,2.888.565,7.679,7.679,0,0,0,3.7-.936.581.581,0,0,0,.151-.1.175.175,0,0,0,.122-.068A10.656,10.656,0,0,0,8.718,7.563" transform="translate(831.79 8202.724)" fill="#ee3284"/>
      <path id="Path_83" data-name="Path 83" d="M.1,2.753a3.311,3.311,0,0,0,1.678.473c.956,0,1.515-.506,1.515-1.237C3.3,1.311,2.91.924,1.933.549.748.13.019-.483.019-1.505A2.087,2.087,0,0,1,2.364-3.472a3.278,3.278,0,0,1,1.6.355l-.256.762A2.913,2.913,0,0,0,2.33-2.7C1.34-2.7.963-2.106.963-1.613c0,.678.443,1.011,1.441,1.4C3.631.257,4.253.849,4.253,1.914,4.253,3.032,3.427,4,1.716,4A3.726,3.726,0,0,1-.132,3.536Z" transform="translate(769.737 8281.718)" fill="#0d6b3f"/>
      <path id="Path_84" data-name="Path 84" d="M.974.352h-2.2v-.8H4.135v.8H1.919V6.8H.974Z" transform="translate(789.875 8278.809)" fill="#0d6b3f"/>
      <path id="Path_85" data-name="Path 85" d="M.442,1.673c0,1.547.839,2.937,2.311,2.937S5.077,3.243,5.077,1.6c0-1.441-.753-2.946-2.311-2.946S.442.081.442,1.673m5.624-.117c0,2.492-1.517,3.815-3.365,3.815C.787,5.371-.558,3.887-.558,1.694c0-2.3,1.431-3.8,3.365-3.8C4.786-2.11,6.066-.6,6.066,1.556" transform="translate(808.855 8280.357)" fill="#0d6b3f"/>
      <path id="Path_86" data-name="Path 86" d="M.413,1.526h.956C2.371,1.526,3,.976,3,.149,3-.787,2.326-1.2,1.338-1.2a3.98,3.98,0,0,0-.925.084Zm-.934-3.3a9.719,9.719,0,0,1,1.793-.149,2.974,2.974,0,0,1,2.1.59A1.806,1.806,0,0,1,3.94.042,1.9,1.9,0,0,1,2.573,1.89v.034A1.8,1.8,0,0,1,3.638,3.385,11.556,11.556,0,0,0,4.2,5.374H3.23a9.356,9.356,0,0,1-.484-1.73c-.213-1-.6-1.377-1.452-1.407H.413V5.374H-.521Z" transform="translate(830.86 8280.236)" fill="#0d6b3f"/>
      <path id="Path_87" data-name="Path 87" d="M1.012,3.2V.13L-1.277-4.042H-.214l1.022,2c.28.55.495.99.721,1.5H1.55c.2-.472.452-.945.73-1.5l1.043-2H4.388L1.957.119V3.2Z" transform="translate(850.807 8282.405)" fill="#0d6b3f"/>
      <path id="Path_88" data-name="Path 88" d="M4.709,9.106l-.274.21c.018.507.043,1.013.056,1.52.077,2.955,1.181,5.665,2.065,8.419a19.546,19.546,0,0,0,1.606,3.213.49.49,0,0,0,.922.038,6.034,6.034,0,0,0,1.185-4.776,16.577,16.577,0,0,0-3.476-6.788A15.523,15.523,0,0,0,4.709,9.106m2.976,32.6c.479-.516,1.006-1,1.429-1.558A34.014,34.014,0,0,1,15.2,33.98a15.765,15.765,0,0,1,2.73-1.565,1.879,1.879,0,0,1,.957,0c.54.065,1.079.149,1.614.26a9.485,9.485,0,0,1,1.23.344c.794.281,1.578.6,2.372.886.88.316,1.018.723.319,1.33-.826.719-1.784,1.289-2.607,2.013-1.4,1.23-2.784,2.483-4.091,3.81a39.07,39.07,0,0,0-6.359,9.186A57.442,57.442,0,0,0,6.347,62.05c-.737,2.662-1.255,5.384-1.888,8.075-.274,1.169-.538,2.345-.911,3.483a6.629,6.629,0,0,1-.959,1.63c-.063.088-.473.065-.592-.047A3.922,3.922,0,0,1,.9,73.929a8.338,8.338,0,0,1-.678-2.86c.005-2.178.206-4.357.355-6.531.072-1.024.3-2.042.281-3.06-.009-.662.925-9.229,1.126-11.239.129-1.275.217-2.56.221-3.84.007-2.205-.023-4.41-.117-6.614-.09-2.1-.2-4.211-.45-6.3C1.282,30.582.791,27.7.35,24.8A12,12,0,0,0,0,22.993c-.194-.617-.549-1.18-.751-1.793a2.768,2.768,0,0,1,.025-.938c.011-.255.111-.549.016-.755-.626-1.377-1.285-2.739-1.951-4.1A34.4,34.4,0,0,1-5.835,4.99,15.1,15.1,0,0,1-5.727.777C-5.658.3-4.944-.208-4.41-.464A3.29,3.29,0,0,1-2.69-.67a19.638,19.638,0,0,0,6.875-.583A53.6,53.6,0,0,0,9.832-3.279c2.721-1,5.448-1.985,8.164-3,1.945-.728,3.88-1.484,5.814-2.245a36.673,36.673,0,0,1,8.582-2.35,48.848,48.848,0,0,1,8.8-.575,21.747,21.747,0,0,1,7.894,2.123c1.506.69,3.012,1.388,4.487,2.141a1.607,1.607,0,0,1,.835.916c.045.256-.411.651-.708.905-.871.746-1.664.167-2.463-.2A16.091,16.091,0,0,0,42.829-7.2c-.457.043-.922-.018-1.382-.005a30.982,30.982,0,0,0-9.66,2.01c-2.427.877-4.88,1.682-7.3,2.582-1.9.7-3.751,1.527-5.638,2.257C15.932.773,13,1.861,10.08,2.985a8.774,8.774,0,0,0-1.1.611,5.941,5.941,0,0,0,.839.821A18.444,18.444,0,0,1,14.386,8.8,17.406,17.406,0,0,1,16.2,12.338a16.466,16.466,0,0,1,1.612,5.413,12.519,12.519,0,0,1-1.122,5.9c-.776,1.82-2.309,2.825-3.779,3.889-1.5,1.085-3.141.87-4.758.142-.889-.4-1.52.081-1.452,1.09.133,1.97.317,3.937.425,5.907.111,2.024.151,4.05.229,6.076.011.294.066.588.1.882Z" transform="translate(843.73 8104.89)" fill="#0d6b3f"/>
      <path id="Path_89" data-name="Path 89" d="M1.087,3.96a9.625,9.625,0,0,0-.3-1.553C.578,1.837.221,1.321-.041.767a13,13,0,0,1-1.3-3.019A7.1,7.1,0,0,1-.849-4.823a.294.294,0,0,1,.233-.17C-.2-4.9.239-4.631.619-4.7A.916.916,0,0,1,1.691-4.2,6.886,6.886,0,0,0,4.05-2.34C5.538-1.4,6.817-.135,8.308.8c2.146,1.337,4.394,2.514,6.614,3.729,2.808,1.538,5.608,3.089,8.451,4.556,1.635.843,3.338,1.56,5.032,2.282,1.908.814,3.8,1.691,5.769,2.322,2.212.706,4.5,1.187,6.764,1.721.489.115.814.258.852.8.032.434.1.864.115,1.3.007.172-.007.439-.115.509q-1.35.885-2.748,1.7c-.3.176-.73.181-.968.405-1.354,1.273-2.9,1.228-4.539.78A79.643,79.643,0,0,1,23.517,17.44c-2.664-1.128-5.334-2.241-7.983-3.4a30.569,30.569,0,0,1-2.869-1.484c-1.947-1.115-3.959-2.142-5.778-3.437a61.481,61.481,0,0,1-4.968-4.24,4.161,4.161,0,0,1-.62-.968c-.07.016-.142.034-.212.052" transform="translate(862.478 8117.271)" fill="#0d6b3f"/>
      <path id="Path_90" data-name="Path 90" d="M8.549,10.3a9.252,9.252,0,0,0,4.025,3.5,5.408,5.408,0,0,0,2.1.24c.841.057,1.685.048,2.519.142.17.018.416.355.428.559.029.412-1.113,1.6-1.529,1.669a28.721,28.721,0,0,1-9.416.151A8.126,8.126,0,0,1,2.2,14.327,18.629,18.629,0,0,1,.393,12.464,7.631,7.631,0,0,1-.752,7.326C-.623,4.2,1.035,1.9,3-.3a5.481,5.481,0,0,0,.929-1.217A1.489,1.489,0,0,0,3.961-2.59a4.444,4.444,0,0,0-.8-1.212c-2.031-2.4-4.421-4.19-7.688-4.48-1.6-.142-3.2-.312-4.807-.468a.618.618,0,0,1-.154-.013c-.434-.163-.866-.33-1.3-.5.3-.593.459-1.5.934-1.723,1.87-.864,3.688-1.974,5.848-2a22.82,22.82,0,0,1,2.3.074,18.306,18.306,0,0,1,6.033,1.449A17.987,17.987,0,0,1,12.145-5.2a3.68,3.68,0,0,1,.124,3.044c-.036.161-.262.294-.423.411A5.377,5.377,0,0,0,10.788-1C9.494.567,7.882,1.971,7.618,4.151c-.24,1.988-.4,3.994.93,6.148" transform="translate(837.226 8074.03)" fill="#0d6b3f"/>
      <path id="Path_91" data-name="Path 91" d="M2.928,5.307a6.683,6.683,0,0,1-.491-.593c-.5-.774-.952-1.328-2.126-.993-.71.2-1.628-.273-2.435-.5-.154-.043-.294-.342-.333-.545-.414-2.133-.8-4.269-1.207-6.4A1.66,1.66,0,0,1-1.9-5.683a1.446,1.446,0,0,0,.823-.077c1.244-.834,2.711-.638,4.07-.907A1.068,1.068,0,0,1,4.307-5.8c.416,1.6.934,3.179,1.391,4.771A2.694,2.694,0,0,1,5.49,1.4a.933.933,0,0,0,.131.868c.8.866,1.635,1.7,2.506,2.487a1.355,1.355,0,0,0,.859.147c1.355-.038,2.707-.138,4.061-.147a1.163,1.163,0,0,1,1.268,1.169c.156,1.449.373,2.89.538,4.339a3.6,3.6,0,0,1-1.664,3.179c-.242.2-.785.066-1.19.065-1.119-.005-2.246.048-3.356-.059a7.927,7.927,0,0,1-2.053-.608c-.154-.061-.251-.414-.276-.644-.1-.965-.125-1.938-.255-2.9A2.223,2.223,0,0,0,5.583,8.29c-.83-1.04-1.7-2.047-2.555-3.068l-.1.084" transform="translate(823.591 8087.12)" fill="#0d6b3f"/>
      <path id="Path_92" data-name="Path 92" d="M2.222,5.267A6.354,6.354,0,0,1,1.834,4.6C1.465,3.755,1.114,3.133-.1,3.273c-.733.084-1.562-.534-2.322-.893-.143-.066-.231-.385-.238-.592-.059-2.173-.1-4.344-.142-6.515A1.66,1.66,0,0,1-.74-6.365a1.439,1.439,0,0,0,.825.057c1.363-.617,2.779-.185,4.163-.228A1.069,1.069,0,0,1,5.4-5.463c.145,1.649.4,3.288.59,4.934a2.691,2.691,0,0,1-.6,2.365.929.929,0,0,0-.013.877c.644.986,1.336,1.943,2.065,2.867a1.38,1.38,0,0,0,.825.285c1.341.183,2.693.307,4.028.52a1.161,1.161,0,0,1,1.06,1.359c-.084,1.456-.106,2.913-.181,4.369a3.6,3.6,0,0,1-2.162,2.863c-.273.163-.785-.065-1.183-.131-1.1-.19-2.225-.321-3.3-.608A7.874,7.874,0,0,1,4.6,13.3c-.143-.084-.181-.448-.167-.679.059-.968.194-1.933.222-2.9a2.2,2.2,0,0,0-.3-1.074C3.7,7.482,3.01,6.346,2.335,5.2Z" transform="translate(851.738 8056.845)" fill="#0d6b3f"/>
      <path id="Path_93" data-name="Path 93" d="M18.913,43.928c.011.025.011.025.036.038l.065.05c.025,0,.025,0,.036.027.138.074.378.237.69.434a54.171,54.171,0,0,0,6.809,3.643,44.61,44.61,0,0,0,19.208,4.339A29.676,29.676,0,0,0,67.385,42.283c6.759-7.646,10.542-17.661,13.2-27.315a68.855,68.855,0,0,0,2.63-17.19.576.576,0,0,1,.014-.151v-.534c1.556-36.9-50.656-52.5-50.656-52.5-.1.109-17.136,19.583-19.981,43.209C10.581,21.814,45.742,32.738,48.738,33.6c.072.025.152.036.224.061.025,0,5.974-7.684,5.974-7.684s.014-.014.014-.023L68.907,7.968c.025-.05.014-.1-.038-.1A64.51,64.51,0,0,1,47.193,2.242a1.326,1.326,0,0,0-.138-.063c-.448-.2-.9-.423-1.359-.647C43.322.4,41-.838,38.772-2.176,28.581-8.269,22.6-17.327,23.816-27.431a.056.056,0,0,1,.09-.036C33.721-20.934,44.731-16.407,54.4-9.535A52.49,52.49,0,0,1,69.544,6.919a27.915,27.915,0,0,1,3.042,7.472c1.719,7.184.475,17.636-6.334,21.942A27.535,27.535,0,0,1,55.861,39.4a.283.283,0,0,1-.1.011,43.134,43.134,0,0,1-13.509-.9,44.2,44.2,0,0,1-6.46-1.981,58.3,58.3,0,0,1-18.961-10.02A69.872,69.872,0,0,1,4.158,13.357a.351.351,0,0,1-.05-.077C-5.647-1.114-6.319-6.7-6.319-6.7S-17.646,12.181-23.855,22.187l.163.1v0a66.154,66.154,0,0,1,6.259,3.978A70.243,70.243,0,0,1,6.1,55.307,68.765,68.765,0,0,1,9.87,66.417,70.084,70.084,0,0,1,11.917,83.27a69.69,69.69,0,0,1-5.741,27.789H36.563a.059.059,0,0,0,.065-.061c-.887-17.787-4.346-54.546-17.751-67.069a.337.337,0,0,1-.036-.036c.011.011.022.011.036.025Z" transform="translate(721.046 8161.217)" fill="#0d6b3f"/>
      <path id="Path_94" data-name="Path 94" d="M17.239,20.773A63.374,63.374,0,0,1,27.666,33.165s.1.161.267.439A61.154,61.154,0,0,1,37.41,68.43a71.192,71.192,0,0,1-3.553,23.787l0,0a55.785,55.785,0,0,1-13.136,20.148.213.213,0,0,0,.161.366.355.355,0,0,0,.142-.041,51.923,51.923,0,0,0,7.985-9.862,90.641,90.641,0,0,0,14.409-28.5c0-.018.018-.059.018-.082v-.018C60.172,20.576,22.851-9.012,4.038-20.1A106.788,106.788,0,0,0-6.878-26.2L-21.744-1.847s.561.256,1.529.575c13.573,5.533,26.5,12,37.454,22.044" transform="translate(780.613 8096.629)" fill="#0d6b3f"/>
      <path id="Path_95" data-name="Path 95" d="M5.952,6.9H-2.73V6.873A1.34,1.34,0,0,1-4,5.528V-4.365A1.361,1.361,0,0,1-2.63-5.738h.237v-.011H1.938a2.78,2.78,0,0,1,2.691,2.1,4.8,4.8,0,0,1,.362,1.78A5.038,5.038,0,0,1,2.1,2.683c-.065.039-.039.115.022.115H6.1A2.056,2.056,0,0,1,8.122,5.164,2.154,2.154,0,0,1,5.952,6.9m1.9-7.1c-.05,0-.075-.036-.05-.074a5.63,5.63,0,0,0,.662-2.671A5.76,5.76,0,0,0,6.772-7.018,5.74,5.74,0,0,0,2.707-8.705H-7.442a.066.066,0,0,0-.066.061V9.843a.066.066,0,0,0,.066.061h14.7A5.243,5.243,0,0,0,12.6,5.1,5.032,5.032,0,0,0,7.847-.2" transform="translate(845.403 8262.354)" fill="#0d6b3f"/>
      <path id="Path_96" data-name="Path 96" d="M9.09,3.779h-9.7a.057.057,0,0,0-.057.057V6.668a.057.057,0,0,0,.057.057h6.46a.068.068,0,0,1,.063.082A5.465,5.465,0,0,1,.655,10.8H-2.52a5.394,5.394,0,0,1-2.515-.619A5.464,5.464,0,0,1-7.981,5.337V3.708A5.473,5.473,0,0,1-2.52-1.768H-.646A3.974,3.974,0,0,1-1-3.408,3.854,3.854,0,0,1-.758-4.767H-3.237a8.231,8.231,0,0,0-8.229,8.233V5.649a8.232,8.232,0,0,0,8.229,8.234h4.67a7.4,7.4,0,0,0,1.373-.124c.093-.014.19-.029.292-.05.072-.014.151-.032.222-.05A8.163,8.163,0,0,0,8.043,10.5a.98.98,0,0,0,.075-.109A7.767,7.767,0,0,0,9.462,6a7.8,7.8,0,0,0-.31-2.18.066.066,0,0,0-.061-.043" transform="translate(786.779 8258.408)" fill="#0d6b3f"/>
      <path id="Path_97" data-name="Path 97" d="M14.076,6.953l-.186.108c-.163.091-.324.206-.461.289l-.125.079a.993.993,0,0,1-.2.122l-1.049.572c-.163.079-.325.136-.486.2-.088.045-.163.066-.238.1-.111.039-.212.079-.312.125-.138.05-.3.115-.436.176l-.151.036c-.224.065-.436.127-.647.192l-.4.122a.964.964,0,0,0-.224.039.9.9,0,0,1-.176.036l-.536.1A14.839,14.839,0,0,1,.968,8.176c-.039-.029-.054-.065-.029-.1L2.051,6.438,5.77,1,8.227-2.578a.056.056,0,0,1,.1,0l6.248,9.142c-.161.138-.324.264-.5.389M17.557,4.5a1.291,1.291,0,0,0,.136-.181l.074-.1a.8.8,0,0,0,.125-.147l.061-.1c.125-.161.226-.328.348-.5l.339-.486c.086-.161.165-.3.249-.461.079-.125.136-.251.2-.366.1-.163.176-.324.273-.507.192-.385.353-.789.515-1.2a5.219,5.219,0,0,0,.335-.861,1.5,1.5,0,0,0,.05-.362,1.033,1.033,0,0,0-.161-.586,1,1,0,0,0-.753-.385.89.89,0,0,0-.359.061.942.942,0,0,0-.511,1.208.966.966,0,0,0,.87.586.866.866,0,0,0-.057.136l-.025.061c-.036.1-.079.206-.136.353L19,.924c-.061.142-.115.3-.177.464a6.647,6.647,0,0,0-.423.771l-.048.079c-.077.136-.176.3-.265.45a3.16,3.16,0,0,1-.3.459l-.35.486a.255.255,0,0,1-.1.163l-.036.072c-.061.065-.136.151-.2.226L10.372-5.747,8.324-8.74a.064.064,0,0,0-.1-.014L6.842-6.733,6.155-5.722,2.912-.993l-1.757,2.6L.3,2.824l-2.42,3.568c-.022.022-.061.036-.082.011A15.681,15.681,0,0,1-5.283,3.471a10.185,10.185,0,0,0,1.008-.647A6.939,6.939,0,0,0-2.117-.136a5.687,5.687,0,0,0,.3-1.144,5.71,5.71,0,0,0,.124-1.212,6.851,6.851,0,0,0-.235-1.822A5.852,5.852,0,0,0-3.2-6.733c-.161-.212-.375-.385-.547-.572a5.807,5.807,0,0,0-3.745-1.37h-10.2a.055.055,0,0,0-.061.061V9.87a.055.055,0,0,0,.061.061H-14.3a.056.056,0,0,0,.061-.061V5.73a.427.427,0,0,1-.025-.176V-4.338a1.369,1.369,0,0,1,1.372-1.37l.251-.014h4.328a2.771,2.771,0,0,1,2.682,2.1,4.6,4.6,0,0,1,.35,1.759A5.07,5.07,0,0,1-6.642,1.591a7.053,7.053,0,0,1-.749.672,4.366,4.366,0,0,1-1.434.586,3.032,3.032,0,0,0-.622.072h-.575a.608.608,0,0,0,.115.136A15.078,15.078,0,0,0-5.7,7.414c.09.061.186.136.323.222l.025.014c.565.346,1.126.669,1.737.972.161.075.324.161.486.237A16.038,16.038,0,0,0-.218,9.83h.05a15.654,15.654,0,0,0,3.853.45,19.978,19.978,0,0,0,3.068-.247,1.429,1.429,0,0,1,.228-.041c0-.011.036-.011.061-.011h.065c.072-.025.172-.025.283-.05.1,0,.2-.011.274-.011a2.781,2.781,0,0,0,.59-.09l.283-.036c.177-.036.385-.072.565-.125l.163-.011A1.43,1.43,0,0,1,9.522,9.6l.414-.1c.262-.1.532-.163.809-.253.149-.061.3-.108.436-.172a3.53,3.53,0,0,1,.35-.122c.1-.039.2-.091.276-.127.161-.065.346-.125.511-.2l.061-.036c.2-.125.428-.222.651-.35l.36-.176c.075-.05.176-.1.262-.161l.075-.065a3.887,3.887,0,0,0,.421-.26l.228-.147A3.966,3.966,0,0,0,14.9,7.05h.02l1.961,2.881a.076.076,0,0,0,.054.025H21.01c.047,0,.075-.047.047-.1L17.468,4.6a.4.4,0,0,1,.09-.108" transform="translate(815.925 8262.327)" fill="#0d6b3f"/>
      <path id="Path_98" data-name="Path 98" d="M0,0V18.495a.058.058,0,0,0,.061.057h3.37a.057.057,0,0,0,.057-.057V0A3.9,3.9,0,0,1,1.748.414,3.911,3.911,0,0,1,0,0" transform="translate(769.4 8253.702)" fill="#0d6b3f"/>
      <path id="Path_99" data-name="Path 99" d="M1.078,0A2.436,2.436,0,1,0,3.516,2.438,2.438,2.438,0,0,0,1.078,0" transform="translate(770.095 8246.76)" fill="#0d6b3f"/>
      <path id="Path_100" data-name="Path 100" d="M.988,23.741a24.888,24.888,0,0,0,4.869-1.094c6.067-6.217,6.214,18.984,6.243,21.118.011.939.844,1.508,1.771,1.845,3.575,1.323,4.713-1.533,6.257-4.439,4.923-9.235,5.251-23.866,5.151-33.045-.115-10.461.3-23.787,5.1-26.729,6.727-4.132,8.857,5.513,9.181,7.259a.063.063,0,0,0,.122-.009c2.046-7.619,1.493-12.779-.369-15.664-2.87-4.468-7.535-3.218-10.87-.26C20.827-20.54,22.417-6.528,22.469,2.5c.034,5.43-.079,11.7-.642,17.512-.714,7.521-2.358,14.334-6.006,17.806a.065.065,0,0,1-.108-.052c.213-2.056,2.121-22.177-4.819-27.19-2.286-1.646-5.807-1.339-8.267-.206C-3.163,13.037-1.347,20.755.937,23.715a.058.058,0,0,0,.05.025" transform="translate(585.144 8167.239)" fill="#0d6b3f"/>
      <path id="Path_101" data-name="Path 101" d="M102.877,31.722c.129-.129.237-.262.346-.393v-.065c-6.78-11.851-22.05-22.962-23-23.658l-.043-.045A115.94,115.94,0,0,1,67.018,26.153,123.872,123.872,0,0,1,5.962,64.641C-116.281,84.47-127.283-30.337-127.283-30.337a5.261,5.261,0,0,0,6.935-1.284,5.2,5.2,0,0,0-1-7.327,5.254,5.254,0,0,0-7.331.981,5.212,5.212,0,0,0-1.065,3.085c0,.047-.022.068-.022.109,0,0,.066,1.067.217,3.044.066,1,.131,2.218.24,3.656.043.692.088,1.475.133,2.3.127.828.278,1.7.391,2.61q.422,2.773.911,6.133c.5,2.239,1.088,4.52,1.7,7.042.307,1.241.633,2.546.957,3.871.412,1.325.913,2.653,1.391,4.021.5,1.37.981,2.786,1.522,4.217.238.742.5,1.459.762,2.2.325.714.674,1.434.977,2.151.889,1.805,1.719,3.7,2.678,5.61l.018.088.022.045c.523,1.065,1.069,2.13,1.676,3.193.3.5.629,1,.934,1.524A129.824,129.824,0,0,0-1.429,84.233,129.235,129.235,0,0,0,77,57.879c.7-.547,1.391-1.086,2.089-1.633a129.187,129.187,0,0,0,23.787-24.524" transform="translate(610.063 8186.27)" fill="#0d6b3f"/>
    </g>
  </g>
</svg>
